<mxfile host="app.diagrams.net" agent="Mozilla/5.0 (Windows NT 10.0; Win64; x64) AppleWebKit/537.36 (KHTML, like Gecko) Chrome/130.0.0.0 Safari/537.36 CCleaner/130.0.0.0" scale="1" border="0" version="25.0.1">
  <diagram name="Страница — 1" id="QfttszPivR05xMVAMJ6k">
    <mxGraphModel dx="2514" dy="878" grid="1" gridSize="10" guides="1" tooltips="1" connect="1" arrows="1" fold="1" page="1" pageScale="1" pageWidth="827" pageHeight="1169" math="0" shadow="0">
      <root>
        <mxCell id="0" />
        <mxCell id="1" parent="0" />
        <mxCell id="GZtOEcgJhMEAu9N8K_ei-14" value="&lt;span style=&quot;text-wrap-mode: wrap;&quot;&gt;Account&lt;/span&gt;" style="shape=table;startSize=30;container=1;collapsible=1;childLayout=tableLayout;fixedRows=1;rowLines=0;fontStyle=1;align=center;resizeLast=1;html=1;" parent="1" vertex="1">
          <mxGeometry x="220" y="372.5" width="290" height="300" as="geometry" />
        </mxCell>
        <mxCell id="GZtOEcgJhMEAu9N8K_ei-15" value="" style="shape=tableRow;horizontal=0;startSize=0;swimlaneHead=0;swimlaneBody=0;fillColor=none;collapsible=0;dropTarget=0;points=[[0,0.5],[1,0.5]];portConstraint=eastwest;top=0;left=0;right=0;bottom=1;" parent="GZtOEcgJhMEAu9N8K_ei-14" vertex="1">
          <mxGeometry y="30" width="290" height="30" as="geometry" />
        </mxCell>
        <mxCell id="GZtOEcgJhMEAu9N8K_ei-16" value="PK" style="shape=partialRectangle;connectable=0;fillColor=none;top=0;left=0;bottom=0;right=0;fontStyle=1;overflow=hidden;whiteSpace=wrap;html=1;" parent="GZtOEcgJhMEAu9N8K_ei-15" vertex="1">
          <mxGeometry width="30" height="30" as="geometry">
            <mxRectangle width="30" height="30" as="alternateBounds" />
          </mxGeometry>
        </mxCell>
        <mxCell id="GZtOEcgJhMEAu9N8K_ei-17" value="account_id INT(11)" style="shape=partialRectangle;connectable=0;fillColor=none;top=0;left=0;bottom=0;right=0;align=left;spacingLeft=6;fontStyle=5;overflow=hidden;whiteSpace=wrap;html=1;" parent="GZtOEcgJhMEAu9N8K_ei-15" vertex="1">
          <mxGeometry x="30" width="260" height="30" as="geometry">
            <mxRectangle width="260" height="30" as="alternateBounds" />
          </mxGeometry>
        </mxCell>
        <mxCell id="GZtOEcgJhMEAu9N8K_ei-18" value="" style="shape=tableRow;horizontal=0;startSize=0;swimlaneHead=0;swimlaneBody=0;fillColor=none;collapsible=0;dropTarget=0;points=[[0,0.5],[1,0.5]];portConstraint=eastwest;top=0;left=0;right=0;bottom=0;" parent="GZtOEcgJhMEAu9N8K_ei-14" vertex="1">
          <mxGeometry y="60" width="290" height="30" as="geometry" />
        </mxCell>
        <mxCell id="GZtOEcgJhMEAu9N8K_ei-19" value="" style="shape=partialRectangle;connectable=0;fillColor=none;top=0;left=0;bottom=0;right=0;editable=1;overflow=hidden;whiteSpace=wrap;html=1;" parent="GZtOEcgJhMEAu9N8K_ei-18" vertex="1">
          <mxGeometry width="30" height="30" as="geometry">
            <mxRectangle width="30" height="30" as="alternateBounds" />
          </mxGeometry>
        </mxCell>
        <mxCell id="GZtOEcgJhMEAu9N8K_ei-20" value="email VARCHAR(255&lt;span style=&quot;background-color: initial;&quot;&gt;)&lt;/span&gt;" style="shape=partialRectangle;connectable=0;fillColor=none;top=0;left=0;bottom=0;right=0;align=left;spacingLeft=6;overflow=hidden;whiteSpace=wrap;html=1;" parent="GZtOEcgJhMEAu9N8K_ei-18" vertex="1">
          <mxGeometry x="30" width="260" height="30" as="geometry">
            <mxRectangle width="260" height="30" as="alternateBounds" />
          </mxGeometry>
        </mxCell>
        <mxCell id="GZtOEcgJhMEAu9N8K_ei-46" value="" style="shape=tableRow;horizontal=0;startSize=0;swimlaneHead=0;swimlaneBody=0;fillColor=none;collapsible=0;dropTarget=0;points=[[0,0.5],[1,0.5]];portConstraint=eastwest;top=0;left=0;right=0;bottom=0;" parent="GZtOEcgJhMEAu9N8K_ei-14" vertex="1">
          <mxGeometry y="90" width="290" height="30" as="geometry" />
        </mxCell>
        <mxCell id="GZtOEcgJhMEAu9N8K_ei-47" value="" style="shape=partialRectangle;connectable=0;fillColor=none;top=0;left=0;bottom=0;right=0;editable=1;overflow=hidden;whiteSpace=wrap;html=1;" parent="GZtOEcgJhMEAu9N8K_ei-46" vertex="1">
          <mxGeometry width="30" height="30" as="geometry">
            <mxRectangle width="30" height="30" as="alternateBounds" />
          </mxGeometry>
        </mxCell>
        <mxCell id="GZtOEcgJhMEAu9N8K_ei-48" value="password&amp;nbsp;&lt;span style=&quot;background-color: initial;&quot;&gt;VARCHAR(255&lt;/span&gt;&lt;span style=&quot;background-color: initial;&quot;&gt;)&lt;/span&gt;" style="shape=partialRectangle;connectable=0;fillColor=none;top=0;left=0;bottom=0;right=0;align=left;spacingLeft=6;overflow=hidden;whiteSpace=wrap;html=1;" parent="GZtOEcgJhMEAu9N8K_ei-46" vertex="1">
          <mxGeometry x="30" width="260" height="30" as="geometry">
            <mxRectangle width="260" height="30" as="alternateBounds" />
          </mxGeometry>
        </mxCell>
        <mxCell id="GZtOEcgJhMEAu9N8K_ei-24" value="" style="shape=tableRow;horizontal=0;startSize=0;swimlaneHead=0;swimlaneBody=0;fillColor=none;collapsible=0;dropTarget=0;points=[[0,0.5],[1,0.5]];portConstraint=eastwest;top=0;left=0;right=0;bottom=0;" parent="GZtOEcgJhMEAu9N8K_ei-14" vertex="1">
          <mxGeometry y="120" width="290" height="30" as="geometry" />
        </mxCell>
        <mxCell id="GZtOEcgJhMEAu9N8K_ei-25" value="" style="shape=partialRectangle;connectable=0;fillColor=none;top=0;left=0;bottom=0;right=0;editable=1;overflow=hidden;whiteSpace=wrap;html=1;" parent="GZtOEcgJhMEAu9N8K_ei-24" vertex="1">
          <mxGeometry width="30" height="30" as="geometry">
            <mxRectangle width="30" height="30" as="alternateBounds" />
          </mxGeometry>
        </mxCell>
        <mxCell id="GZtOEcgJhMEAu9N8K_ei-26" value="payment_method VARCHAR(255&lt;span style=&quot;background-color: initial;&quot;&gt;)&lt;/span&gt;" style="shape=partialRectangle;connectable=0;fillColor=none;top=0;left=0;bottom=0;right=0;align=left;spacingLeft=6;overflow=hidden;whiteSpace=wrap;html=1;" parent="GZtOEcgJhMEAu9N8K_ei-24" vertex="1">
          <mxGeometry x="30" width="260" height="30" as="geometry">
            <mxRectangle width="260" height="30" as="alternateBounds" />
          </mxGeometry>
        </mxCell>
        <mxCell id="GZtOEcgJhMEAu9N8K_ei-63" value="" style="shape=tableRow;horizontal=0;startSize=0;swimlaneHead=0;swimlaneBody=0;fillColor=none;collapsible=0;dropTarget=0;points=[[0,0.5],[1,0.5]];portConstraint=eastwest;top=0;left=0;right=0;bottom=0;" parent="GZtOEcgJhMEAu9N8K_ei-14" vertex="1">
          <mxGeometry y="150" width="290" height="30" as="geometry" />
        </mxCell>
        <mxCell id="GZtOEcgJhMEAu9N8K_ei-64" value="" style="shape=partialRectangle;connectable=0;fillColor=none;top=0;left=0;bottom=0;right=0;editable=1;overflow=hidden;whiteSpace=wrap;html=1;" parent="GZtOEcgJhMEAu9N8K_ei-63" vertex="1">
          <mxGeometry width="30" height="30" as="geometry">
            <mxRectangle width="30" height="30" as="alternateBounds" />
          </mxGeometry>
        </mxCell>
        <mxCell id="GZtOEcgJhMEAu9N8K_ei-65" value="blocked BIT (1)" style="shape=partialRectangle;connectable=0;fillColor=none;top=0;left=0;bottom=0;right=0;align=left;spacingLeft=6;overflow=hidden;whiteSpace=wrap;html=1;" parent="GZtOEcgJhMEAu9N8K_ei-63" vertex="1">
          <mxGeometry x="30" width="260" height="30" as="geometry">
            <mxRectangle width="260" height="30" as="alternateBounds" />
          </mxGeometry>
        </mxCell>
        <mxCell id="XdL7hsEJWzmp8j8xBz7F-273" value="" style="shape=tableRow;horizontal=0;startSize=0;swimlaneHead=0;swimlaneBody=0;fillColor=none;collapsible=0;dropTarget=0;points=[[0,0.5],[1,0.5]];portConstraint=eastwest;top=0;left=0;right=0;bottom=0;" parent="GZtOEcgJhMEAu9N8K_ei-14" vertex="1">
          <mxGeometry y="180" width="290" height="30" as="geometry" />
        </mxCell>
        <mxCell id="XdL7hsEJWzmp8j8xBz7F-274" value="" style="shape=partialRectangle;connectable=0;fillColor=none;top=0;left=0;bottom=0;right=0;editable=1;overflow=hidden;whiteSpace=wrap;html=1;" parent="XdL7hsEJWzmp8j8xBz7F-273" vertex="1">
          <mxGeometry width="30" height="30" as="geometry">
            <mxRectangle width="30" height="30" as="alternateBounds" />
          </mxGeometry>
        </mxCell>
        <mxCell id="XdL7hsEJWzmp8j8xBz7F-275" value="subscription ENUM(&#39;SD&#39;, HD&#39;&#39;, &#39;UHD&#39;)" style="shape=partialRectangle;connectable=0;fillColor=none;top=0;left=0;bottom=0;right=0;align=left;spacingLeft=6;overflow=hidden;whiteSpace=wrap;html=1;" parent="XdL7hsEJWzmp8j8xBz7F-273" vertex="1">
          <mxGeometry x="30" width="260" height="30" as="geometry">
            <mxRectangle width="260" height="30" as="alternateBounds" />
          </mxGeometry>
        </mxCell>
        <mxCell id="EU6la3L2fqB7HWYpTvSu-4" value="" style="shape=tableRow;horizontal=0;startSize=0;swimlaneHead=0;swimlaneBody=0;fillColor=none;collapsible=0;dropTarget=0;points=[[0,0.5],[1,0.5]];portConstraint=eastwest;top=0;left=0;right=0;bottom=0;" parent="GZtOEcgJhMEAu9N8K_ei-14" vertex="1">
          <mxGeometry y="210" width="290" height="30" as="geometry" />
        </mxCell>
        <mxCell id="EU6la3L2fqB7HWYpTvSu-5" value="" style="shape=partialRectangle;connectable=0;fillColor=none;top=0;left=0;bottom=0;right=0;editable=1;overflow=hidden;whiteSpace=wrap;html=1;" parent="EU6la3L2fqB7HWYpTvSu-4" vertex="1">
          <mxGeometry width="30" height="30" as="geometry">
            <mxRectangle width="30" height="30" as="alternateBounds" />
          </mxGeometry>
        </mxCell>
        <mxCell id="EU6la3L2fqB7HWYpTvSu-6" value="trial_start_date DATETIME" style="shape=partialRectangle;connectable=0;fillColor=none;top=0;left=0;bottom=0;right=0;align=left;spacingLeft=6;overflow=hidden;whiteSpace=wrap;html=1;" parent="EU6la3L2fqB7HWYpTvSu-4" vertex="1">
          <mxGeometry x="30" width="260" height="30" as="geometry">
            <mxRectangle width="260" height="30" as="alternateBounds" />
          </mxGeometry>
        </mxCell>
        <mxCell id="XxUTKqTBw_vDR70XKBTU-1" value="" style="shape=tableRow;horizontal=0;startSize=0;swimlaneHead=0;swimlaneBody=0;fillColor=none;collapsible=0;dropTarget=0;points=[[0,0.5],[1,0.5]];portConstraint=eastwest;top=0;left=0;right=0;bottom=0;" parent="GZtOEcgJhMEAu9N8K_ei-14" vertex="1">
          <mxGeometry y="240" width="290" height="30" as="geometry" />
        </mxCell>
        <mxCell id="XxUTKqTBw_vDR70XKBTU-2" value="FK2" style="shape=partialRectangle;connectable=0;fillColor=none;top=0;left=0;bottom=0;right=0;editable=1;overflow=hidden;whiteSpace=wrap;html=1;" parent="XxUTKqTBw_vDR70XKBTU-1" vertex="1">
          <mxGeometry width="30" height="30" as="geometry">
            <mxRectangle width="30" height="30" as="alternateBounds" />
          </mxGeometry>
        </mxCell>
        <mxCell id="XxUTKqTBw_vDR70XKBTU-3" value="&lt;span style=&quot;&quot;&gt;language_id INT(11)&lt;/span&gt;" style="shape=partialRectangle;connectable=0;fillColor=none;top=0;left=0;bottom=0;right=0;align=left;spacingLeft=6;overflow=hidden;whiteSpace=wrap;html=1;fontStyle=0" parent="XxUTKqTBw_vDR70XKBTU-1" vertex="1">
          <mxGeometry x="30" width="260" height="30" as="geometry">
            <mxRectangle width="260" height="30" as="alternateBounds" />
          </mxGeometry>
        </mxCell>
        <mxCell id="YiE-9e4Dk8rgPIYkGhOm-1" value="" style="shape=tableRow;horizontal=0;startSize=0;swimlaneHead=0;swimlaneBody=0;fillColor=none;collapsible=0;dropTarget=0;points=[[0,0.5],[1,0.5]];portConstraint=eastwest;top=0;left=0;right=0;bottom=0;" parent="GZtOEcgJhMEAu9N8K_ei-14" vertex="1">
          <mxGeometry y="270" width="290" height="30" as="geometry" />
        </mxCell>
        <mxCell id="YiE-9e4Dk8rgPIYkGhOm-2" value="" style="shape=partialRectangle;connectable=0;fillColor=none;top=0;left=0;bottom=0;right=0;editable=1;overflow=hidden;whiteSpace=wrap;html=1;" parent="YiE-9e4Dk8rgPIYkGhOm-1" vertex="1">
          <mxGeometry width="30" height="30" as="geometry">
            <mxRectangle width="30" height="30" as="alternateBounds" />
          </mxGeometry>
        </mxCell>
        <mxCell id="YiE-9e4Dk8rgPIYkGhOm-3" value="role ENUM(&#39;Viewer&#39;, &#39;Junior&#39;, Medior&#39;&#39;, &#39;Senior&#39;)" style="shape=partialRectangle;connectable=0;fillColor=none;top=0;left=0;bottom=0;right=0;align=left;spacingLeft=6;overflow=hidden;whiteSpace=wrap;html=1;" parent="YiE-9e4Dk8rgPIYkGhOm-1" vertex="1">
          <mxGeometry x="30" width="260" height="30" as="geometry">
            <mxRectangle width="260" height="30" as="alternateBounds" />
          </mxGeometry>
        </mxCell>
        <mxCell id="GZtOEcgJhMEAu9N8K_ei-27" value="Profile" style="shape=table;startSize=40;container=1;collapsible=1;childLayout=tableLayout;fixedRows=1;rowLines=0;fontStyle=1;align=center;resizeLast=1;html=1;whiteSpace=wrap;" parent="1" vertex="1">
          <mxGeometry x="-120" y="290" width="230" height="160" as="geometry" />
        </mxCell>
        <mxCell id="GZtOEcgJhMEAu9N8K_ei-28" value="" style="shape=tableRow;horizontal=0;startSize=0;swimlaneHead=0;swimlaneBody=0;fillColor=none;collapsible=0;dropTarget=0;points=[[0,0.5],[1,0.5]];portConstraint=eastwest;top=0;left=0;right=0;bottom=1;html=1;" parent="GZtOEcgJhMEAu9N8K_ei-27" vertex="1">
          <mxGeometry y="40" width="230" height="30" as="geometry" />
        </mxCell>
        <mxCell id="GZtOEcgJhMEAu9N8K_ei-29" value="PK" style="shape=partialRectangle;connectable=0;fillColor=none;top=0;left=0;bottom=0;right=0;fontStyle=1;overflow=hidden;html=1;whiteSpace=wrap;" parent="GZtOEcgJhMEAu9N8K_ei-28" vertex="1">
          <mxGeometry width="60" height="30" as="geometry">
            <mxRectangle width="60" height="30" as="alternateBounds" />
          </mxGeometry>
        </mxCell>
        <mxCell id="GZtOEcgJhMEAu9N8K_ei-30" value="profile_id" style="shape=partialRectangle;connectable=0;fillColor=none;top=0;left=0;bottom=0;right=0;align=left;spacingLeft=6;fontStyle=5;overflow=hidden;html=1;whiteSpace=wrap;" parent="GZtOEcgJhMEAu9N8K_ei-28" vertex="1">
          <mxGeometry x="60" width="170" height="30" as="geometry">
            <mxRectangle width="170" height="30" as="alternateBounds" />
          </mxGeometry>
        </mxCell>
        <mxCell id="GZtOEcgJhMEAu9N8K_ei-31" value="" style="shape=tableRow;horizontal=0;startSize=0;swimlaneHead=0;swimlaneBody=0;fillColor=none;collapsible=0;dropTarget=0;points=[[0,0.5],[1,0.5]];portConstraint=eastwest;top=0;left=0;right=0;bottom=0;html=1;" parent="GZtOEcgJhMEAu9N8K_ei-27" vertex="1">
          <mxGeometry y="70" width="230" height="30" as="geometry" />
        </mxCell>
        <mxCell id="GZtOEcgJhMEAu9N8K_ei-32" value="FK1" style="shape=partialRectangle;connectable=0;fillColor=none;top=0;left=0;bottom=0;right=0;fontStyle=0;overflow=hidden;html=1;whiteSpace=wrap;" parent="GZtOEcgJhMEAu9N8K_ei-31" vertex="1">
          <mxGeometry width="60" height="30" as="geometry">
            <mxRectangle width="60" height="30" as="alternateBounds" />
          </mxGeometry>
        </mxCell>
        <mxCell id="GZtOEcgJhMEAu9N8K_ei-33" value="account_id" style="shape=partialRectangle;connectable=0;fillColor=none;top=0;left=0;bottom=0;right=0;align=left;spacingLeft=6;fontStyle=0;overflow=hidden;html=1;whiteSpace=wrap;" parent="GZtOEcgJhMEAu9N8K_ei-31" vertex="1">
          <mxGeometry x="60" width="170" height="30" as="geometry">
            <mxRectangle width="170" height="30" as="alternateBounds" />
          </mxGeometry>
        </mxCell>
        <mxCell id="GZtOEcgJhMEAu9N8K_ei-34" value="" style="shape=tableRow;horizontal=0;startSize=0;swimlaneHead=0;swimlaneBody=0;fillColor=none;collapsible=0;dropTarget=0;points=[[0,0.5],[1,0.5]];portConstraint=eastwest;top=0;left=0;right=0;bottom=0;html=1;" parent="GZtOEcgJhMEAu9N8K_ei-27" vertex="1">
          <mxGeometry y="100" width="230" height="30" as="geometry" />
        </mxCell>
        <mxCell id="GZtOEcgJhMEAu9N8K_ei-35" value="" style="shape=partialRectangle;connectable=0;fillColor=none;top=0;left=0;bottom=0;right=0;editable=1;overflow=hidden;html=1;whiteSpace=wrap;" parent="GZtOEcgJhMEAu9N8K_ei-34" vertex="1">
          <mxGeometry width="60" height="30" as="geometry">
            <mxRectangle width="60" height="30" as="alternateBounds" />
          </mxGeometry>
        </mxCell>
        <mxCell id="GZtOEcgJhMEAu9N8K_ei-36" value="profile_image VARCHAR(255&lt;span style=&quot;background-color: initial;&quot;&gt;)&lt;/span&gt;" style="shape=partialRectangle;connectable=0;fillColor=none;top=0;left=0;bottom=0;right=0;align=left;spacingLeft=6;overflow=hidden;html=1;whiteSpace=wrap;" parent="GZtOEcgJhMEAu9N8K_ei-34" vertex="1">
          <mxGeometry x="60" width="170" height="30" as="geometry">
            <mxRectangle width="170" height="30" as="alternateBounds" />
          </mxGeometry>
        </mxCell>
        <mxCell id="GZtOEcgJhMEAu9N8K_ei-37" value="" style="shape=tableRow;horizontal=0;startSize=0;swimlaneHead=0;swimlaneBody=0;fillColor=none;collapsible=0;dropTarget=0;points=[[0,0.5],[1,0.5]];portConstraint=eastwest;top=0;left=0;right=0;bottom=0;html=1;" parent="GZtOEcgJhMEAu9N8K_ei-27" vertex="1">
          <mxGeometry y="130" width="230" height="30" as="geometry" />
        </mxCell>
        <mxCell id="GZtOEcgJhMEAu9N8K_ei-38" value="" style="shape=partialRectangle;connectable=0;fillColor=none;top=0;left=0;bottom=0;right=0;editable=1;overflow=hidden;html=1;whiteSpace=wrap;" parent="GZtOEcgJhMEAu9N8K_ei-37" vertex="1">
          <mxGeometry width="60" height="30" as="geometry">
            <mxRectangle width="60" height="30" as="alternateBounds" />
          </mxGeometry>
        </mxCell>
        <mxCell id="GZtOEcgJhMEAu9N8K_ei-39" value="profile_child BIT (1)" style="shape=partialRectangle;connectable=0;fillColor=none;top=0;left=0;bottom=0;right=0;align=left;spacingLeft=6;overflow=hidden;html=1;whiteSpace=wrap;" parent="GZtOEcgJhMEAu9N8K_ei-37" vertex="1">
          <mxGeometry x="60" width="170" height="30" as="geometry">
            <mxRectangle width="170" height="30" as="alternateBounds" />
          </mxGeometry>
        </mxCell>
        <mxCell id="GZtOEcgJhMEAu9N8K_ei-79" value="Episode" style="shape=table;startSize=30;container=1;collapsible=1;childLayout=tableLayout;fixedRows=1;rowLines=0;fontStyle=1;align=center;resizeLast=1;html=1;" parent="1" vertex="1">
          <mxGeometry x="-510" y="760" width="240" height="150" as="geometry" />
        </mxCell>
        <mxCell id="GZtOEcgJhMEAu9N8K_ei-80" value="" style="shape=tableRow;horizontal=0;startSize=0;swimlaneHead=0;swimlaneBody=0;fillColor=none;collapsible=0;dropTarget=0;points=[[0,0.5],[1,0.5]];portConstraint=eastwest;top=0;left=0;right=0;bottom=1;" parent="GZtOEcgJhMEAu9N8K_ei-79" vertex="1">
          <mxGeometry y="30" width="240" height="30" as="geometry" />
        </mxCell>
        <mxCell id="GZtOEcgJhMEAu9N8K_ei-81" value="PK" style="shape=partialRectangle;connectable=0;fillColor=none;top=0;left=0;bottom=0;right=0;fontStyle=1;overflow=hidden;whiteSpace=wrap;html=1;" parent="GZtOEcgJhMEAu9N8K_ei-80" vertex="1">
          <mxGeometry width="30" height="30" as="geometry">
            <mxRectangle width="30" height="30" as="alternateBounds" />
          </mxGeometry>
        </mxCell>
        <mxCell id="GZtOEcgJhMEAu9N8K_ei-82" value="episode_id INT(11)" style="shape=partialRectangle;connectable=0;fillColor=none;top=0;left=0;bottom=0;right=0;align=left;spacingLeft=6;fontStyle=5;overflow=hidden;whiteSpace=wrap;html=1;" parent="GZtOEcgJhMEAu9N8K_ei-80" vertex="1">
          <mxGeometry x="30" width="210" height="30" as="geometry">
            <mxRectangle width="210" height="30" as="alternateBounds" />
          </mxGeometry>
        </mxCell>
        <mxCell id="GZtOEcgJhMEAu9N8K_ei-83" value="" style="shape=tableRow;horizontal=0;startSize=0;swimlaneHead=0;swimlaneBody=0;fillColor=none;collapsible=0;dropTarget=0;points=[[0,0.5],[1,0.5]];portConstraint=eastwest;top=0;left=0;right=0;bottom=0;" parent="GZtOEcgJhMEAu9N8K_ei-79" vertex="1">
          <mxGeometry y="60" width="240" height="30" as="geometry" />
        </mxCell>
        <mxCell id="GZtOEcgJhMEAu9N8K_ei-84" value="" style="shape=partialRectangle;connectable=0;fillColor=none;top=0;left=0;bottom=0;right=0;editable=1;overflow=hidden;whiteSpace=wrap;html=1;" parent="GZtOEcgJhMEAu9N8K_ei-83" vertex="1">
          <mxGeometry width="30" height="30" as="geometry">
            <mxRectangle width="30" height="30" as="alternateBounds" />
          </mxGeometry>
        </mxCell>
        <mxCell id="GZtOEcgJhMEAu9N8K_ei-85" value="title VARCHAR(255)" style="shape=partialRectangle;connectable=0;fillColor=none;top=0;left=0;bottom=0;right=0;align=left;spacingLeft=6;overflow=hidden;whiteSpace=wrap;html=1;" parent="GZtOEcgJhMEAu9N8K_ei-83" vertex="1">
          <mxGeometry x="30" width="210" height="30" as="geometry">
            <mxRectangle width="210" height="30" as="alternateBounds" />
          </mxGeometry>
        </mxCell>
        <mxCell id="GZtOEcgJhMEAu9N8K_ei-86" value="" style="shape=tableRow;horizontal=0;startSize=0;swimlaneHead=0;swimlaneBody=0;fillColor=none;collapsible=0;dropTarget=0;points=[[0,0.5],[1,0.5]];portConstraint=eastwest;top=0;left=0;right=0;bottom=0;" parent="GZtOEcgJhMEAu9N8K_ei-79" vertex="1">
          <mxGeometry y="90" width="240" height="30" as="geometry" />
        </mxCell>
        <mxCell id="GZtOEcgJhMEAu9N8K_ei-87" value="" style="shape=partialRectangle;connectable=0;fillColor=none;top=0;left=0;bottom=0;right=0;editable=1;overflow=hidden;whiteSpace=wrap;html=1;" parent="GZtOEcgJhMEAu9N8K_ei-86" vertex="1">
          <mxGeometry width="30" height="30" as="geometry">
            <mxRectangle width="30" height="30" as="alternateBounds" />
          </mxGeometry>
        </mxCell>
        <mxCell id="GZtOEcgJhMEAu9N8K_ei-88" value="duration TIME | DEFAULT &#39;00:00:00&#39;" style="shape=partialRectangle;connectable=0;fillColor=none;top=0;left=0;bottom=0;right=0;align=left;spacingLeft=6;overflow=hidden;whiteSpace=wrap;html=1;" parent="GZtOEcgJhMEAu9N8K_ei-86" vertex="1">
          <mxGeometry x="30" width="210" height="30" as="geometry">
            <mxRectangle width="210" height="30" as="alternateBounds" />
          </mxGeometry>
        </mxCell>
        <mxCell id="GZtOEcgJhMEAu9N8K_ei-89" value="" style="shape=tableRow;horizontal=0;startSize=0;swimlaneHead=0;swimlaneBody=0;fillColor=none;collapsible=0;dropTarget=0;points=[[0,0.5],[1,0.5]];portConstraint=eastwest;top=0;left=0;right=0;bottom=0;" parent="GZtOEcgJhMEAu9N8K_ei-79" vertex="1">
          <mxGeometry y="120" width="240" height="30" as="geometry" />
        </mxCell>
        <mxCell id="GZtOEcgJhMEAu9N8K_ei-90" value="FK1" style="shape=partialRectangle;connectable=0;fillColor=none;top=0;left=0;bottom=0;right=0;editable=1;overflow=hidden;whiteSpace=wrap;html=1;" parent="GZtOEcgJhMEAu9N8K_ei-89" vertex="1">
          <mxGeometry width="30" height="30" as="geometry">
            <mxRectangle width="30" height="30" as="alternateBounds" />
          </mxGeometry>
        </mxCell>
        <mxCell id="GZtOEcgJhMEAu9N8K_ei-91" value="series_id INT(11)" style="shape=partialRectangle;connectable=0;fillColor=none;top=0;left=0;bottom=0;right=0;align=left;spacingLeft=6;overflow=hidden;whiteSpace=wrap;html=1;" parent="GZtOEcgJhMEAu9N8K_ei-89" vertex="1">
          <mxGeometry x="30" width="210" height="30" as="geometry">
            <mxRectangle width="210" height="30" as="alternateBounds" />
          </mxGeometry>
        </mxCell>
        <mxCell id="GZtOEcgJhMEAu9N8K_ei-66" value="Movie" style="shape=table;startSize=30;container=1;collapsible=1;childLayout=tableLayout;fixedRows=1;rowLines=0;fontStyle=1;align=center;resizeLast=1;html=1;" parent="1" vertex="1">
          <mxGeometry x="510" y="890" width="250" height="120" as="geometry" />
        </mxCell>
        <mxCell id="GZtOEcgJhMEAu9N8K_ei-67" value="" style="shape=tableRow;horizontal=0;startSize=0;swimlaneHead=0;swimlaneBody=0;fillColor=none;collapsible=0;dropTarget=0;points=[[0,0.5],[1,0.5]];portConstraint=eastwest;top=0;left=0;right=0;bottom=1;" parent="GZtOEcgJhMEAu9N8K_ei-66" vertex="1">
          <mxGeometry y="30" width="250" height="30" as="geometry" />
        </mxCell>
        <mxCell id="GZtOEcgJhMEAu9N8K_ei-68" value="PK" style="shape=partialRectangle;connectable=0;fillColor=none;top=0;left=0;bottom=0;right=0;fontStyle=1;overflow=hidden;whiteSpace=wrap;html=1;" parent="GZtOEcgJhMEAu9N8K_ei-67" vertex="1">
          <mxGeometry width="30" height="30" as="geometry">
            <mxRectangle width="30" height="30" as="alternateBounds" />
          </mxGeometry>
        </mxCell>
        <mxCell id="GZtOEcgJhMEAu9N8K_ei-69" value="movie_id INT(11)" style="shape=partialRectangle;connectable=0;fillColor=none;top=0;left=0;bottom=0;right=0;align=left;spacingLeft=6;fontStyle=5;overflow=hidden;whiteSpace=wrap;html=1;" parent="GZtOEcgJhMEAu9N8K_ei-67" vertex="1">
          <mxGeometry x="30" width="220" height="30" as="geometry">
            <mxRectangle width="220" height="30" as="alternateBounds" />
          </mxGeometry>
        </mxCell>
        <mxCell id="GZtOEcgJhMEAu9N8K_ei-70" value="" style="shape=tableRow;horizontal=0;startSize=0;swimlaneHead=0;swimlaneBody=0;fillColor=none;collapsible=0;dropTarget=0;points=[[0,0.5],[1,0.5]];portConstraint=eastwest;top=0;left=0;right=0;bottom=0;" parent="GZtOEcgJhMEAu9N8K_ei-66" vertex="1">
          <mxGeometry y="60" width="250" height="30" as="geometry" />
        </mxCell>
        <mxCell id="GZtOEcgJhMEAu9N8K_ei-71" value="" style="shape=partialRectangle;connectable=0;fillColor=none;top=0;left=0;bottom=0;right=0;editable=1;overflow=hidden;whiteSpace=wrap;html=1;" parent="GZtOEcgJhMEAu9N8K_ei-70" vertex="1">
          <mxGeometry width="30" height="30" as="geometry">
            <mxRectangle width="30" height="30" as="alternateBounds" />
          </mxGeometry>
        </mxCell>
        <mxCell id="GZtOEcgJhMEAu9N8K_ei-72" value="title VARCHAR(255)" style="shape=partialRectangle;connectable=0;fillColor=none;top=0;left=0;bottom=0;right=0;align=left;spacingLeft=6;overflow=hidden;whiteSpace=wrap;html=1;" parent="GZtOEcgJhMEAu9N8K_ei-70" vertex="1">
          <mxGeometry x="30" width="220" height="30" as="geometry">
            <mxRectangle width="220" height="30" as="alternateBounds" />
          </mxGeometry>
        </mxCell>
        <mxCell id="GZtOEcgJhMEAu9N8K_ei-73" value="" style="shape=tableRow;horizontal=0;startSize=0;swimlaneHead=0;swimlaneBody=0;fillColor=none;collapsible=0;dropTarget=0;points=[[0,0.5],[1,0.5]];portConstraint=eastwest;top=0;left=0;right=0;bottom=0;" parent="GZtOEcgJhMEAu9N8K_ei-66" vertex="1">
          <mxGeometry y="90" width="250" height="30" as="geometry" />
        </mxCell>
        <mxCell id="GZtOEcgJhMEAu9N8K_ei-74" value="" style="shape=partialRectangle;connectable=0;fillColor=none;top=0;left=0;bottom=0;right=0;editable=1;overflow=hidden;whiteSpace=wrap;html=1;" parent="GZtOEcgJhMEAu9N8K_ei-73" vertex="1">
          <mxGeometry width="30" height="30" as="geometry">
            <mxRectangle width="30" height="30" as="alternateBounds" />
          </mxGeometry>
        </mxCell>
        <mxCell id="GZtOEcgJhMEAu9N8K_ei-75" value="duration TIME | DEFAULT &#39;00:00:00&#39;" style="shape=partialRectangle;connectable=0;fillColor=none;top=0;left=0;bottom=0;right=0;align=left;spacingLeft=6;overflow=hidden;whiteSpace=wrap;html=1;" parent="GZtOEcgJhMEAu9N8K_ei-73" vertex="1">
          <mxGeometry x="30" width="220" height="30" as="geometry">
            <mxRectangle width="220" height="30" as="alternateBounds" />
          </mxGeometry>
        </mxCell>
        <mxCell id="GZtOEcgJhMEAu9N8K_ei-100" value="" style="shape=tableRow;horizontal=0;startSize=0;swimlaneHead=0;swimlaneBody=0;fillColor=none;collapsible=0;dropTarget=0;points=[[0,0.5],[1,0.5]];portConstraint=eastwest;top=0;left=0;right=0;bottom=0;" parent="1" vertex="1">
          <mxGeometry x="10" y="870" width="180" height="30" as="geometry" />
        </mxCell>
        <mxCell id="GZtOEcgJhMEAu9N8K_ei-101" value="" style="shape=partialRectangle;connectable=0;fillColor=none;top=0;left=0;bottom=0;right=0;editable=1;overflow=hidden;whiteSpace=wrap;html=1;" parent="GZtOEcgJhMEAu9N8K_ei-100" vertex="1">
          <mxGeometry x="-210" y="85" width="30" height="30" as="geometry">
            <mxRectangle width="30" height="30" as="alternateBounds" />
          </mxGeometry>
        </mxCell>
        <mxCell id="XdL7hsEJWzmp8j8xBz7F-4" value="" style="edgeStyle=entityRelationEdgeStyle;fontSize=12;html=1;endArrow=ERoneToMany;startArrow=ERmandOne;rounded=0;" parent="1" source="GZtOEcgJhMEAu9N8K_ei-14" target="GZtOEcgJhMEAu9N8K_ei-27" edge="1">
          <mxGeometry width="100" height="100" relative="1" as="geometry">
            <mxPoint x="470" y="960" as="sourcePoint" />
            <mxPoint x="490" y="680" as="targetPoint" />
          </mxGeometry>
        </mxCell>
        <mxCell id="XdL7hsEJWzmp8j8xBz7F-22" value="" style="edgeStyle=entityRelationEdgeStyle;fontSize=12;html=1;endArrow=ERoneToMany;startArrow=ERmandOne;rounded=0;" parent="1" source="fjR6-STgmZudcx6aowrz-14" target="3xG4VRkXuifI6DESEmEP-20" edge="1">
          <mxGeometry width="100" height="100" relative="1" as="geometry">
            <mxPoint x="560" y="920" as="sourcePoint" />
            <mxPoint x="620" y="800" as="targetPoint" />
          </mxGeometry>
        </mxCell>
        <mxCell id="XdL7hsEJWzmp8j8xBz7F-23" value="Genre" style="shape=table;startSize=30;container=1;collapsible=1;childLayout=tableLayout;fixedRows=1;rowLines=0;fontStyle=1;align=center;resizeLast=1;html=1;" parent="1" vertex="1">
          <mxGeometry x="130" y="890" width="180" height="90" as="geometry" />
        </mxCell>
        <mxCell id="XdL7hsEJWzmp8j8xBz7F-24" value="" style="shape=tableRow;horizontal=0;startSize=0;swimlaneHead=0;swimlaneBody=0;fillColor=none;collapsible=0;dropTarget=0;points=[[0,0.5],[1,0.5]];portConstraint=eastwest;top=0;left=0;right=0;bottom=1;fontStyle=1" parent="XdL7hsEJWzmp8j8xBz7F-23" vertex="1">
          <mxGeometry y="30" width="180" height="30" as="geometry" />
        </mxCell>
        <mxCell id="XdL7hsEJWzmp8j8xBz7F-25" value="PK" style="shape=partialRectangle;connectable=0;fillColor=none;top=0;left=0;bottom=0;right=0;fontStyle=1;overflow=hidden;whiteSpace=wrap;html=1;" parent="XdL7hsEJWzmp8j8xBz7F-24" vertex="1">
          <mxGeometry width="30" height="30" as="geometry">
            <mxRectangle width="30" height="30" as="alternateBounds" />
          </mxGeometry>
        </mxCell>
        <mxCell id="XdL7hsEJWzmp8j8xBz7F-26" value="genre_id INT(11)" style="shape=partialRectangle;connectable=0;fillColor=none;top=0;left=0;bottom=0;right=0;align=left;spacingLeft=6;fontStyle=5;overflow=hidden;whiteSpace=wrap;html=1;" parent="XdL7hsEJWzmp8j8xBz7F-24" vertex="1">
          <mxGeometry x="30" width="150" height="30" as="geometry">
            <mxRectangle width="150" height="30" as="alternateBounds" />
          </mxGeometry>
        </mxCell>
        <mxCell id="XdL7hsEJWzmp8j8xBz7F-27" value="" style="shape=tableRow;horizontal=0;startSize=0;swimlaneHead=0;swimlaneBody=0;fillColor=none;collapsible=0;dropTarget=0;points=[[0,0.5],[1,0.5]];portConstraint=eastwest;top=0;left=0;right=0;bottom=0;" parent="XdL7hsEJWzmp8j8xBz7F-23" vertex="1">
          <mxGeometry y="60" width="180" height="30" as="geometry" />
        </mxCell>
        <mxCell id="XdL7hsEJWzmp8j8xBz7F-28" value="" style="shape=partialRectangle;connectable=0;fillColor=none;top=0;left=0;bottom=0;right=0;editable=1;overflow=hidden;whiteSpace=wrap;html=1;" parent="XdL7hsEJWzmp8j8xBz7F-27" vertex="1">
          <mxGeometry width="30" height="30" as="geometry">
            <mxRectangle width="30" height="30" as="alternateBounds" />
          </mxGeometry>
        </mxCell>
        <mxCell id="XdL7hsEJWzmp8j8xBz7F-29" value="name VARCHAR(255)" style="shape=partialRectangle;connectable=0;fillColor=none;top=0;left=0;bottom=0;right=0;align=left;spacingLeft=6;overflow=hidden;whiteSpace=wrap;html=1;" parent="XdL7hsEJWzmp8j8xBz7F-27" vertex="1">
          <mxGeometry x="30" width="150" height="30" as="geometry">
            <mxRectangle width="150" height="30" as="alternateBounds" />
          </mxGeometry>
        </mxCell>
        <mxCell id="XdL7hsEJWzmp8j8xBz7F-49" value="Genre/account" style="shape=table;startSize=30;container=1;collapsible=1;childLayout=tableLayout;fixedRows=1;rowLines=0;fontStyle=1;align=center;resizeLast=1;html=1;" parent="1" vertex="1">
          <mxGeometry x="350" y="785" width="180" height="95" as="geometry" />
        </mxCell>
        <mxCell id="XdL7hsEJWzmp8j8xBz7F-50" value="" style="shape=tableRow;horizontal=0;startSize=0;swimlaneHead=0;swimlaneBody=0;fillColor=none;collapsible=0;dropTarget=0;points=[[0,0.5],[1,0.5]];portConstraint=eastwest;top=0;left=0;right=0;bottom=0;" parent="XdL7hsEJWzmp8j8xBz7F-49" vertex="1">
          <mxGeometry y="30" width="180" height="30" as="geometry" />
        </mxCell>
        <mxCell id="XdL7hsEJWzmp8j8xBz7F-51" value="PK,FK1" style="shape=partialRectangle;connectable=0;fillColor=none;top=0;left=0;bottom=0;right=0;fontStyle=1;overflow=hidden;whiteSpace=wrap;html=1;" parent="XdL7hsEJWzmp8j8xBz7F-50" vertex="1">
          <mxGeometry width="56" height="30" as="geometry">
            <mxRectangle width="56" height="30" as="alternateBounds" />
          </mxGeometry>
        </mxCell>
        <mxCell id="XdL7hsEJWzmp8j8xBz7F-52" value="account_id INT(11)" style="shape=partialRectangle;connectable=0;fillColor=none;top=0;left=0;bottom=0;right=0;align=left;spacingLeft=6;fontStyle=5;overflow=hidden;whiteSpace=wrap;html=1;" parent="XdL7hsEJWzmp8j8xBz7F-50" vertex="1">
          <mxGeometry x="56" width="124" height="30" as="geometry">
            <mxRectangle width="124" height="30" as="alternateBounds" />
          </mxGeometry>
        </mxCell>
        <mxCell id="XdL7hsEJWzmp8j8xBz7F-53" value="" style="shape=tableRow;horizontal=0;startSize=0;swimlaneHead=0;swimlaneBody=0;fillColor=none;collapsible=0;dropTarget=0;points=[[0,0.5],[1,0.5]];portConstraint=eastwest;top=0;left=0;right=0;bottom=1;" parent="XdL7hsEJWzmp8j8xBz7F-49" vertex="1">
          <mxGeometry y="60" width="180" height="30" as="geometry" />
        </mxCell>
        <mxCell id="XdL7hsEJWzmp8j8xBz7F-54" value="PK,FK2" style="shape=partialRectangle;connectable=0;fillColor=none;top=0;left=0;bottom=0;right=0;fontStyle=1;overflow=hidden;whiteSpace=wrap;html=1;" parent="XdL7hsEJWzmp8j8xBz7F-53" vertex="1">
          <mxGeometry width="56" height="30" as="geometry">
            <mxRectangle width="56" height="30" as="alternateBounds" />
          </mxGeometry>
        </mxCell>
        <mxCell id="XdL7hsEJWzmp8j8xBz7F-55" value="genre_id INT(11)" style="shape=partialRectangle;connectable=0;fillColor=none;top=0;left=0;bottom=0;right=0;align=left;spacingLeft=6;fontStyle=5;overflow=hidden;whiteSpace=wrap;html=1;" parent="XdL7hsEJWzmp8j8xBz7F-53" vertex="1">
          <mxGeometry x="56" width="124" height="30" as="geometry">
            <mxRectangle width="124" height="30" as="alternateBounds" />
          </mxGeometry>
        </mxCell>
        <mxCell id="XdL7hsEJWzmp8j8xBz7F-56" value="" style="edgeStyle=entityRelationEdgeStyle;fontSize=12;html=1;endArrow=ERoneToMany;startArrow=ERmandOne;rounded=0;" parent="1" source="XdL7hsEJWzmp8j8xBz7F-23" target="XdL7hsEJWzmp8j8xBz7F-49" edge="1">
          <mxGeometry width="100" height="100" relative="1" as="geometry">
            <mxPoint x="-20" y="730" as="sourcePoint" />
            <mxPoint x="80" y="630" as="targetPoint" />
            <Array as="points">
              <mxPoint x="330" y="910" />
              <mxPoint x="350" y="800" />
            </Array>
          </mxGeometry>
        </mxCell>
        <mxCell id="XdL7hsEJWzmp8j8xBz7F-57" value="" style="edgeStyle=entityRelationEdgeStyle;fontSize=12;html=1;endArrow=ERoneToMany;startArrow=ERmandOne;rounded=0;" parent="1" source="XdL7hsEJWzmp8j8xBz7F-273" target="XdL7hsEJWzmp8j8xBz7F-49" edge="1">
          <mxGeometry width="100" height="100" relative="1" as="geometry">
            <mxPoint x="230" y="695" as="sourcePoint" />
            <mxPoint x="330" y="595" as="targetPoint" />
          </mxGeometry>
        </mxCell>
        <mxCell id="XdL7hsEJWzmp8j8xBz7F-71" value="Series" style="shape=table;startSize=20;container=1;collapsible=1;childLayout=tableLayout;fixedRows=1;rowLines=0;fontStyle=1;align=center;resizeLast=1;html=1;" parent="1" vertex="1">
          <mxGeometry x="-210" y="800" width="260" height="140" as="geometry" />
        </mxCell>
        <mxCell id="XdL7hsEJWzmp8j8xBz7F-72" value="" style="shape=tableRow;horizontal=0;startSize=0;swimlaneHead=0;swimlaneBody=0;fillColor=none;collapsible=0;dropTarget=0;points=[[0,0.5],[1,0.5]];portConstraint=eastwest;top=0;left=0;right=0;bottom=1;" parent="XdL7hsEJWzmp8j8xBz7F-71" vertex="1">
          <mxGeometry y="20" width="260" height="30" as="geometry" />
        </mxCell>
        <mxCell id="XdL7hsEJWzmp8j8xBz7F-73" value="PK" style="shape=partialRectangle;connectable=0;fillColor=none;top=0;left=0;bottom=0;right=0;fontStyle=1;overflow=hidden;whiteSpace=wrap;html=1;" parent="XdL7hsEJWzmp8j8xBz7F-72" vertex="1">
          <mxGeometry width="30" height="30" as="geometry">
            <mxRectangle width="30" height="30" as="alternateBounds" />
          </mxGeometry>
        </mxCell>
        <mxCell id="XdL7hsEJWzmp8j8xBz7F-74" value="series_id INT(11)" style="shape=partialRectangle;connectable=0;fillColor=none;top=0;left=0;bottom=0;right=0;align=left;spacingLeft=6;fontStyle=5;overflow=hidden;whiteSpace=wrap;html=1;" parent="XdL7hsEJWzmp8j8xBz7F-72" vertex="1">
          <mxGeometry x="30" width="230" height="30" as="geometry">
            <mxRectangle width="230" height="30" as="alternateBounds" />
          </mxGeometry>
        </mxCell>
        <mxCell id="XdL7hsEJWzmp8j8xBz7F-75" value="" style="shape=tableRow;horizontal=0;startSize=0;swimlaneHead=0;swimlaneBody=0;fillColor=none;collapsible=0;dropTarget=0;points=[[0,0.5],[1,0.5]];portConstraint=eastwest;top=0;left=0;right=0;bottom=0;" parent="XdL7hsEJWzmp8j8xBz7F-71" vertex="1">
          <mxGeometry y="50" width="260" height="30" as="geometry" />
        </mxCell>
        <mxCell id="XdL7hsEJWzmp8j8xBz7F-76" value="" style="shape=partialRectangle;connectable=0;fillColor=none;top=0;left=0;bottom=0;right=0;editable=1;overflow=hidden;whiteSpace=wrap;html=1;" parent="XdL7hsEJWzmp8j8xBz7F-75" vertex="1">
          <mxGeometry width="30" height="30" as="geometry">
            <mxRectangle width="30" height="30" as="alternateBounds" />
          </mxGeometry>
        </mxCell>
        <mxCell id="XdL7hsEJWzmp8j8xBz7F-77" value="title VARCHAR(255)" style="shape=partialRectangle;connectable=0;fillColor=none;top=0;left=0;bottom=0;right=0;align=left;spacingLeft=6;overflow=hidden;whiteSpace=wrap;html=1;" parent="XdL7hsEJWzmp8j8xBz7F-75" vertex="1">
          <mxGeometry x="30" width="230" height="30" as="geometry">
            <mxRectangle width="230" height="30" as="alternateBounds" />
          </mxGeometry>
        </mxCell>
        <mxCell id="XdL7hsEJWzmp8j8xBz7F-78" value="" style="shape=tableRow;horizontal=0;startSize=0;swimlaneHead=0;swimlaneBody=0;fillColor=none;collapsible=0;dropTarget=0;points=[[0,0.5],[1,0.5]];portConstraint=eastwest;top=0;left=0;right=0;bottom=0;" parent="XdL7hsEJWzmp8j8xBz7F-71" vertex="1">
          <mxGeometry y="80" width="260" height="30" as="geometry" />
        </mxCell>
        <mxCell id="XdL7hsEJWzmp8j8xBz7F-79" value="" style="shape=partialRectangle;connectable=0;fillColor=none;top=0;left=0;bottom=0;right=0;editable=1;overflow=hidden;whiteSpace=wrap;html=1;" parent="XdL7hsEJWzmp8j8xBz7F-78" vertex="1">
          <mxGeometry width="30" height="30" as="geometry">
            <mxRectangle width="30" height="30" as="alternateBounds" />
          </mxGeometry>
        </mxCell>
        <mxCell id="XdL7hsEJWzmp8j8xBz7F-80" value="duration TIME | DEFAULT &#39;00:00:00&#39;" style="shape=partialRectangle;connectable=0;fillColor=none;top=0;left=0;bottom=0;right=0;align=left;spacingLeft=6;overflow=hidden;whiteSpace=wrap;html=1;" parent="XdL7hsEJWzmp8j8xBz7F-78" vertex="1">
          <mxGeometry x="30" width="230" height="30" as="geometry">
            <mxRectangle width="230" height="30" as="alternateBounds" />
          </mxGeometry>
        </mxCell>
        <mxCell id="XdL7hsEJWzmp8j8xBz7F-87" value="" style="shape=tableRow;horizontal=0;startSize=0;swimlaneHead=0;swimlaneBody=0;fillColor=none;collapsible=0;dropTarget=0;points=[[0,0.5],[1,0.5]];portConstraint=eastwest;top=0;left=0;right=0;bottom=0;" parent="XdL7hsEJWzmp8j8xBz7F-71" vertex="1">
          <mxGeometry y="110" width="260" height="30" as="geometry" />
        </mxCell>
        <mxCell id="XdL7hsEJWzmp8j8xBz7F-88" value="" style="shape=partialRectangle;connectable=0;fillColor=none;top=0;left=0;bottom=0;right=0;editable=1;overflow=hidden;whiteSpace=wrap;html=1;" parent="XdL7hsEJWzmp8j8xBz7F-87" vertex="1">
          <mxGeometry width="30" height="30" as="geometry">
            <mxRectangle width="30" height="30" as="alternateBounds" />
          </mxGeometry>
        </mxCell>
        <mxCell id="XdL7hsEJWzmp8j8xBz7F-89" value="age_range ENUM(&#39;6&#39;, &#39;9&#39;, &#39;12&#39;, &#39;16&#39;, &#39;16+&#39;)" style="shape=partialRectangle;connectable=0;fillColor=none;top=0;left=0;bottom=0;right=0;align=left;spacingLeft=6;overflow=hidden;whiteSpace=wrap;html=1;" parent="XdL7hsEJWzmp8j8xBz7F-87" vertex="1">
          <mxGeometry x="30" width="230" height="30" as="geometry">
            <mxRectangle width="230" height="30" as="alternateBounds" />
          </mxGeometry>
        </mxCell>
        <mxCell id="XdL7hsEJWzmp8j8xBz7F-137" value="" style="edgeStyle=elbowEdgeStyle;fontSize=12;html=1;endArrow=ERoneToMany;startArrow=ERmandOne;rounded=0;elbow=vertical;" parent="1" source="XdL7hsEJWzmp8j8xBz7F-27" target="1vVcCZTa0Yc0mYnQ3SdC-1" edge="1">
          <mxGeometry width="100" height="100" relative="1" as="geometry">
            <mxPoint x="190" y="1135" as="sourcePoint" />
            <mxPoint x="190" y="1060" as="targetPoint" />
            <Array as="points">
              <mxPoint x="210" y="1080" />
            </Array>
          </mxGeometry>
        </mxCell>
        <mxCell id="XdL7hsEJWzmp8j8xBz7F-136" value="" style="edgeStyle=entityRelationEdgeStyle;fontSize=12;html=1;endArrow=ERoneToMany;startArrow=ERmandOne;rounded=0;" parent="1" source="XdL7hsEJWzmp8j8xBz7F-27" target="eUmrSAGHuuEkEOH1z1c--14" edge="1">
          <mxGeometry width="100" height="100" relative="1" as="geometry">
            <mxPoint x="390" y="1172" as="sourcePoint" />
            <mxPoint x="330" y="1070" as="targetPoint" />
          </mxGeometry>
        </mxCell>
        <mxCell id="XdL7hsEJWzmp8j8xBz7F-172" value="" style="edgeStyle=entityRelationEdgeStyle;fontSize=12;html=1;endArrow=ERoneToMany;startArrow=ERmandOne;rounded=0;" parent="1" source="GZtOEcgJhMEAu9N8K_ei-79" target="XdL7hsEJWzmp8j8xBz7F-72" edge="1">
          <mxGeometry width="100" height="100" relative="1" as="geometry">
            <mxPoint x="-580" y="877.5" as="sourcePoint" />
            <mxPoint x="-630" y="715" as="targetPoint" />
          </mxGeometry>
        </mxCell>
        <mxCell id="XdL7hsEJWzmp8j8xBz7F-196" value="SeriesViewCount" style="shape=table;startSize=30;container=1;collapsible=1;childLayout=tableLayout;fixedRows=1;rowLines=0;fontStyle=1;align=center;resizeLast=1;html=1;" parent="1" vertex="1">
          <mxGeometry x="-95" y="530" width="180" height="125" as="geometry" />
        </mxCell>
        <mxCell id="XdL7hsEJWzmp8j8xBz7F-197" value="" style="shape=tableRow;horizontal=0;startSize=0;swimlaneHead=0;swimlaneBody=0;fillColor=none;collapsible=0;dropTarget=0;points=[[0,0.5],[1,0.5]];portConstraint=eastwest;top=0;left=0;right=0;bottom=0;" parent="XdL7hsEJWzmp8j8xBz7F-196" vertex="1">
          <mxGeometry y="30" width="180" height="30" as="geometry" />
        </mxCell>
        <mxCell id="XdL7hsEJWzmp8j8xBz7F-198" value="PK,FK1" style="shape=partialRectangle;connectable=0;fillColor=none;top=0;left=0;bottom=0;right=0;fontStyle=1;overflow=hidden;whiteSpace=wrap;html=1;" parent="XdL7hsEJWzmp8j8xBz7F-197" vertex="1">
          <mxGeometry width="56" height="30" as="geometry">
            <mxRectangle width="56" height="30" as="alternateBounds" />
          </mxGeometry>
        </mxCell>
        <mxCell id="XdL7hsEJWzmp8j8xBz7F-199" value="account_id INT(11)" style="shape=partialRectangle;connectable=0;fillColor=none;top=0;left=0;bottom=0;right=0;align=left;spacingLeft=6;fontStyle=5;overflow=hidden;whiteSpace=wrap;html=1;" parent="XdL7hsEJWzmp8j8xBz7F-197" vertex="1">
          <mxGeometry x="56" width="124" height="30" as="geometry">
            <mxRectangle width="124" height="30" as="alternateBounds" />
          </mxGeometry>
        </mxCell>
        <mxCell id="XdL7hsEJWzmp8j8xBz7F-200" value="" style="shape=tableRow;horizontal=0;startSize=0;swimlaneHead=0;swimlaneBody=0;fillColor=none;collapsible=0;dropTarget=0;points=[[0,0.5],[1,0.5]];portConstraint=eastwest;top=0;left=0;right=0;bottom=1;" parent="XdL7hsEJWzmp8j8xBz7F-196" vertex="1">
          <mxGeometry y="60" width="180" height="30" as="geometry" />
        </mxCell>
        <mxCell id="XdL7hsEJWzmp8j8xBz7F-201" value="PK,FK2" style="shape=partialRectangle;connectable=0;fillColor=none;top=0;left=0;bottom=0;right=0;fontStyle=1;overflow=hidden;whiteSpace=wrap;html=1;" parent="XdL7hsEJWzmp8j8xBz7F-200" vertex="1">
          <mxGeometry width="56" height="30" as="geometry">
            <mxRectangle width="56" height="30" as="alternateBounds" />
          </mxGeometry>
        </mxCell>
        <mxCell id="XdL7hsEJWzmp8j8xBz7F-202" value="series_id INT(11)" style="shape=partialRectangle;connectable=0;fillColor=none;top=0;left=0;bottom=0;right=0;align=left;spacingLeft=6;fontStyle=5;overflow=hidden;whiteSpace=wrap;html=1;" parent="XdL7hsEJWzmp8j8xBz7F-200" vertex="1">
          <mxGeometry x="56" width="124" height="30" as="geometry">
            <mxRectangle width="124" height="30" as="alternateBounds" />
          </mxGeometry>
        </mxCell>
        <mxCell id="XdL7hsEJWzmp8j8xBz7F-203" value="" style="shape=tableRow;horizontal=0;startSize=0;swimlaneHead=0;swimlaneBody=0;fillColor=none;collapsible=0;dropTarget=0;points=[[0,0.5],[1,0.5]];portConstraint=eastwest;top=0;left=0;right=0;bottom=0;" parent="XdL7hsEJWzmp8j8xBz7F-196" vertex="1">
          <mxGeometry y="90" width="180" height="30" as="geometry" />
        </mxCell>
        <mxCell id="XdL7hsEJWzmp8j8xBz7F-204" value="" style="shape=partialRectangle;connectable=0;fillColor=none;top=0;left=0;bottom=0;right=0;fontStyle=1;overflow=hidden;whiteSpace=wrap;html=1;" parent="XdL7hsEJWzmp8j8xBz7F-203" vertex="1">
          <mxGeometry width="56" height="30" as="geometry">
            <mxRectangle width="56" height="30" as="alternateBounds" />
          </mxGeometry>
        </mxCell>
        <mxCell id="XdL7hsEJWzmp8j8xBz7F-205" value="&lt;span style=&quot;&quot;&gt;number INT(11)&lt;/span&gt;" style="shape=partialRectangle;connectable=0;fillColor=none;top=0;left=0;bottom=0;right=0;align=left;spacingLeft=6;fontStyle=0;overflow=hidden;whiteSpace=wrap;html=1;" parent="XdL7hsEJWzmp8j8xBz7F-203" vertex="1">
          <mxGeometry x="56" width="124" height="30" as="geometry">
            <mxRectangle width="124" height="30" as="alternateBounds" />
          </mxGeometry>
        </mxCell>
        <mxCell id="XdL7hsEJWzmp8j8xBz7F-207" value="" style="edgeStyle=entityRelationEdgeStyle;fontSize=12;html=1;endArrow=ERoneToMany;rounded=0;" parent="1" source="GZtOEcgJhMEAu9N8K_ei-14" target="XdL7hsEJWzmp8j8xBz7F-186" edge="1">
          <mxGeometry width="100" height="100" relative="1" as="geometry">
            <mxPoint x="600" y="565" as="sourcePoint" />
            <mxPoint x="700" y="465" as="targetPoint" />
          </mxGeometry>
        </mxCell>
        <mxCell id="XdL7hsEJWzmp8j8xBz7F-208" value="" style="edgeStyle=entityRelationEdgeStyle;fontSize=12;html=1;endArrow=ERoneToMany;startArrow=ERmandOne;rounded=0;" parent="1" source="GZtOEcgJhMEAu9N8K_ei-67" target="XdL7hsEJWzmp8j8xBz7F-186" edge="1">
          <mxGeometry width="100" height="100" relative="1" as="geometry">
            <mxPoint x="826" y="705" as="sourcePoint" />
            <mxPoint x="720" y="1107.5" as="targetPoint" />
          </mxGeometry>
        </mxCell>
        <mxCell id="XdL7hsEJWzmp8j8xBz7F-209" value="" style="edgeStyle=entityRelationEdgeStyle;fontSize=12;html=1;endArrow=ERoneToMany;startArrow=ERmandOne;rounded=0;" parent="1" source="GZtOEcgJhMEAu9N8K_ei-15" target="XdL7hsEJWzmp8j8xBz7F-197" edge="1">
          <mxGeometry width="100" height="100" relative="1" as="geometry">
            <mxPoint x="330" y="640" as="sourcePoint" />
            <mxPoint x="430" y="540" as="targetPoint" />
          </mxGeometry>
        </mxCell>
        <mxCell id="XdL7hsEJWzmp8j8xBz7F-210" value="" style="edgeStyle=entityRelationEdgeStyle;fontSize=12;html=1;endArrow=ERoneToMany;startArrow=ERmandOne;rounded=0;" parent="1" source="XdL7hsEJWzmp8j8xBz7F-71" target="XdL7hsEJWzmp8j8xBz7F-200" edge="1">
          <mxGeometry width="100" height="100" relative="1" as="geometry">
            <mxPoint x="-350" y="680" as="sourcePoint" />
            <mxPoint x="-250" y="580" as="targetPoint" />
          </mxGeometry>
        </mxCell>
        <mxCell id="XdL7hsEJWzmp8j8xBz7F-250" value="MoviesProfileWattchlist" style="shape=table;startSize=30;container=1;collapsible=1;childLayout=tableLayout;fixedRows=1;rowLines=0;fontStyle=1;align=center;resizeLast=1;html=1;" parent="1" vertex="1">
          <mxGeometry x="400" y="230" width="180" height="95" as="geometry" />
        </mxCell>
        <mxCell id="XdL7hsEJWzmp8j8xBz7F-251" value="" style="shape=tableRow;horizontal=0;startSize=0;swimlaneHead=0;swimlaneBody=0;fillColor=none;collapsible=0;dropTarget=0;points=[[0,0.5],[1,0.5]];portConstraint=eastwest;top=0;left=0;right=0;bottom=0;" parent="XdL7hsEJWzmp8j8xBz7F-250" vertex="1">
          <mxGeometry y="30" width="180" height="30" as="geometry" />
        </mxCell>
        <mxCell id="XdL7hsEJWzmp8j8xBz7F-252" value="PK,FK1" style="shape=partialRectangle;connectable=0;fillColor=none;top=0;left=0;bottom=0;right=0;fontStyle=1;overflow=hidden;whiteSpace=wrap;html=1;" parent="XdL7hsEJWzmp8j8xBz7F-251" vertex="1">
          <mxGeometry width="56" height="30" as="geometry">
            <mxRectangle width="56" height="30" as="alternateBounds" />
          </mxGeometry>
        </mxCell>
        <mxCell id="XdL7hsEJWzmp8j8xBz7F-253" value="profile_id INT(11)" style="shape=partialRectangle;connectable=0;fillColor=none;top=0;left=0;bottom=0;right=0;align=left;spacingLeft=6;fontStyle=5;overflow=hidden;whiteSpace=wrap;html=1;" parent="XdL7hsEJWzmp8j8xBz7F-251" vertex="1">
          <mxGeometry x="56" width="124" height="30" as="geometry">
            <mxRectangle width="124" height="30" as="alternateBounds" />
          </mxGeometry>
        </mxCell>
        <mxCell id="XdL7hsEJWzmp8j8xBz7F-254" value="" style="shape=tableRow;horizontal=0;startSize=0;swimlaneHead=0;swimlaneBody=0;fillColor=none;collapsible=0;dropTarget=0;points=[[0,0.5],[1,0.5]];portConstraint=eastwest;top=0;left=0;right=0;bottom=1;" parent="XdL7hsEJWzmp8j8xBz7F-250" vertex="1">
          <mxGeometry y="60" width="180" height="30" as="geometry" />
        </mxCell>
        <mxCell id="XdL7hsEJWzmp8j8xBz7F-255" value="PK,FK2" style="shape=partialRectangle;connectable=0;fillColor=none;top=0;left=0;bottom=0;right=0;fontStyle=1;overflow=hidden;whiteSpace=wrap;html=1;" parent="XdL7hsEJWzmp8j8xBz7F-254" vertex="1">
          <mxGeometry width="56" height="30" as="geometry">
            <mxRectangle width="56" height="30" as="alternateBounds" />
          </mxGeometry>
        </mxCell>
        <mxCell id="XdL7hsEJWzmp8j8xBz7F-256" value="movie_id INT(11)" style="shape=partialRectangle;connectable=0;fillColor=none;top=0;left=0;bottom=0;right=0;align=left;spacingLeft=6;fontStyle=5;overflow=hidden;whiteSpace=wrap;html=1;" parent="XdL7hsEJWzmp8j8xBz7F-254" vertex="1">
          <mxGeometry x="56" width="124" height="30" as="geometry">
            <mxRectangle width="124" height="30" as="alternateBounds" />
          </mxGeometry>
        </mxCell>
        <mxCell id="XdL7hsEJWzmp8j8xBz7F-260" value="SeriesProfileWatchlist" style="shape=table;startSize=30;container=1;collapsible=1;childLayout=tableLayout;fixedRows=1;rowLines=0;fontStyle=1;align=center;resizeLast=1;html=1;" parent="1" vertex="1">
          <mxGeometry x="-450" y="460" width="180" height="95" as="geometry" />
        </mxCell>
        <mxCell id="XdL7hsEJWzmp8j8xBz7F-261" value="" style="shape=tableRow;horizontal=0;startSize=0;swimlaneHead=0;swimlaneBody=0;fillColor=none;collapsible=0;dropTarget=0;points=[[0,0.5],[1,0.5]];portConstraint=eastwest;top=0;left=0;right=0;bottom=0;" parent="XdL7hsEJWzmp8j8xBz7F-260" vertex="1">
          <mxGeometry y="30" width="180" height="30" as="geometry" />
        </mxCell>
        <mxCell id="XdL7hsEJWzmp8j8xBz7F-262" value="PK,FK1" style="shape=partialRectangle;connectable=0;fillColor=none;top=0;left=0;bottom=0;right=0;fontStyle=1;overflow=hidden;whiteSpace=wrap;html=1;" parent="XdL7hsEJWzmp8j8xBz7F-261" vertex="1">
          <mxGeometry width="56" height="30" as="geometry">
            <mxRectangle width="56" height="30" as="alternateBounds" />
          </mxGeometry>
        </mxCell>
        <mxCell id="XdL7hsEJWzmp8j8xBz7F-263" value="account_id INT(11)" style="shape=partialRectangle;connectable=0;fillColor=none;top=0;left=0;bottom=0;right=0;align=left;spacingLeft=6;fontStyle=5;overflow=hidden;whiteSpace=wrap;html=1;" parent="XdL7hsEJWzmp8j8xBz7F-261" vertex="1">
          <mxGeometry x="56" width="124" height="30" as="geometry">
            <mxRectangle width="124" height="30" as="alternateBounds" />
          </mxGeometry>
        </mxCell>
        <mxCell id="XdL7hsEJWzmp8j8xBz7F-264" value="" style="shape=tableRow;horizontal=0;startSize=0;swimlaneHead=0;swimlaneBody=0;fillColor=none;collapsible=0;dropTarget=0;points=[[0,0.5],[1,0.5]];portConstraint=eastwest;top=0;left=0;right=0;bottom=1;" parent="XdL7hsEJWzmp8j8xBz7F-260" vertex="1">
          <mxGeometry y="60" width="180" height="30" as="geometry" />
        </mxCell>
        <mxCell id="XdL7hsEJWzmp8j8xBz7F-265" value="PK,FK2" style="shape=partialRectangle;connectable=0;fillColor=none;top=0;left=0;bottom=0;right=0;fontStyle=1;overflow=hidden;whiteSpace=wrap;html=1;" parent="XdL7hsEJWzmp8j8xBz7F-264" vertex="1">
          <mxGeometry width="56" height="30" as="geometry">
            <mxRectangle width="56" height="30" as="alternateBounds" />
          </mxGeometry>
        </mxCell>
        <mxCell id="XdL7hsEJWzmp8j8xBz7F-266" value="series_id INT(11)" style="shape=partialRectangle;connectable=0;fillColor=none;top=0;left=0;bottom=0;right=0;align=left;spacingLeft=6;fontStyle=5;overflow=hidden;whiteSpace=wrap;html=1;" parent="XdL7hsEJWzmp8j8xBz7F-264" vertex="1">
          <mxGeometry x="56" width="124" height="30" as="geometry">
            <mxRectangle width="124" height="30" as="alternateBounds" />
          </mxGeometry>
        </mxCell>
        <mxCell id="XdL7hsEJWzmp8j8xBz7F-267" value="" style="edgeStyle=entityRelationEdgeStyle;fontSize=12;html=1;endArrow=ERoneToMany;startArrow=ERmandOne;rounded=0;" parent="1" source="GZtOEcgJhMEAu9N8K_ei-28" target="XdL7hsEJWzmp8j8xBz7F-250" edge="1">
          <mxGeometry width="100" height="100" relative="1" as="geometry">
            <mxPoint x="240" y="230" as="sourcePoint" />
            <mxPoint x="340" y="130" as="targetPoint" />
          </mxGeometry>
        </mxCell>
        <mxCell id="XdL7hsEJWzmp8j8xBz7F-270" value="" style="edgeStyle=entityRelationEdgeStyle;fontSize=12;html=1;endArrow=ERoneToMany;startArrow=ERmandOne;rounded=0;" parent="1" source="GZtOEcgJhMEAu9N8K_ei-28" target="XdL7hsEJWzmp8j8xBz7F-260" edge="1">
          <mxGeometry width="100" height="100" relative="1" as="geometry">
            <mxPoint x="-250" y="320" as="sourcePoint" />
            <mxPoint x="-150" y="220" as="targetPoint" />
          </mxGeometry>
        </mxCell>
        <mxCell id="XdL7hsEJWzmp8j8xBz7F-271" value="" style="edgeStyle=entityRelationEdgeStyle;fontSize=12;html=1;endArrow=ERoneToMany;startArrow=ERmandOne;rounded=0;" parent="1" source="XdL7hsEJWzmp8j8xBz7F-264" target="XdL7hsEJWzmp8j8xBz7F-71" edge="1">
          <mxGeometry width="100" height="100" relative="1" as="geometry">
            <mxPoint x="-100" y="600" as="sourcePoint" />
            <mxPoint y="500" as="targetPoint" />
            <Array as="points">
              <mxPoint x="-410" y="780" />
              <mxPoint x="-450" y="770" />
              <mxPoint x="-470" y="660" />
              <mxPoint x="-420" y="770" />
            </Array>
          </mxGeometry>
        </mxCell>
        <mxCell id="XdL7hsEJWzmp8j8xBz7F-186" value="MovieViewCount" style="shape=table;startSize=30;container=1;collapsible=1;childLayout=tableLayout;fixedRows=1;rowLines=0;fontStyle=1;align=center;resizeLast=1;html=1;" parent="1" vertex="1">
          <mxGeometry x="580" y="460" width="180" height="125" as="geometry" />
        </mxCell>
        <mxCell id="XdL7hsEJWzmp8j8xBz7F-187" value="" style="shape=tableRow;horizontal=0;startSize=0;swimlaneHead=0;swimlaneBody=0;fillColor=none;collapsible=0;dropTarget=0;points=[[0,0.5],[1,0.5]];portConstraint=eastwest;top=0;left=0;right=0;bottom=0;" parent="XdL7hsEJWzmp8j8xBz7F-186" vertex="1">
          <mxGeometry y="30" width="180" height="30" as="geometry" />
        </mxCell>
        <mxCell id="XdL7hsEJWzmp8j8xBz7F-188" value="PK,FK1" style="shape=partialRectangle;connectable=0;fillColor=none;top=0;left=0;bottom=0;right=0;fontStyle=1;overflow=hidden;whiteSpace=wrap;html=1;" parent="XdL7hsEJWzmp8j8xBz7F-187" vertex="1">
          <mxGeometry width="56" height="30" as="geometry">
            <mxRectangle width="56" height="30" as="alternateBounds" />
          </mxGeometry>
        </mxCell>
        <mxCell id="XdL7hsEJWzmp8j8xBz7F-189" value="account_id INT(11)" style="shape=partialRectangle;connectable=0;fillColor=none;top=0;left=0;bottom=0;right=0;align=left;spacingLeft=6;fontStyle=5;overflow=hidden;whiteSpace=wrap;html=1;" parent="XdL7hsEJWzmp8j8xBz7F-187" vertex="1">
          <mxGeometry x="56" width="124" height="30" as="geometry">
            <mxRectangle width="124" height="30" as="alternateBounds" />
          </mxGeometry>
        </mxCell>
        <mxCell id="XdL7hsEJWzmp8j8xBz7F-190" value="" style="shape=tableRow;horizontal=0;startSize=0;swimlaneHead=0;swimlaneBody=0;fillColor=none;collapsible=0;dropTarget=0;points=[[0,0.5],[1,0.5]];portConstraint=eastwest;top=0;left=0;right=0;bottom=1;" parent="XdL7hsEJWzmp8j8xBz7F-186" vertex="1">
          <mxGeometry y="60" width="180" height="30" as="geometry" />
        </mxCell>
        <mxCell id="XdL7hsEJWzmp8j8xBz7F-191" value="PK,FK2" style="shape=partialRectangle;connectable=0;fillColor=none;top=0;left=0;bottom=0;right=0;fontStyle=1;overflow=hidden;whiteSpace=wrap;html=1;" parent="XdL7hsEJWzmp8j8xBz7F-190" vertex="1">
          <mxGeometry width="56" height="30" as="geometry">
            <mxRectangle width="56" height="30" as="alternateBounds" />
          </mxGeometry>
        </mxCell>
        <mxCell id="XdL7hsEJWzmp8j8xBz7F-192" value="movie_id INT(11)" style="shape=partialRectangle;connectable=0;fillColor=none;top=0;left=0;bottom=0;right=0;align=left;spacingLeft=6;fontStyle=5;overflow=hidden;whiteSpace=wrap;html=1;" parent="XdL7hsEJWzmp8j8xBz7F-190" vertex="1">
          <mxGeometry x="56" width="124" height="30" as="geometry">
            <mxRectangle width="124" height="30" as="alternateBounds" />
          </mxGeometry>
        </mxCell>
        <mxCell id="XdL7hsEJWzmp8j8xBz7F-193" value="" style="shape=tableRow;horizontal=0;startSize=0;swimlaneHead=0;swimlaneBody=0;fillColor=none;collapsible=0;dropTarget=0;points=[[0,0.5],[1,0.5]];portConstraint=eastwest;top=0;left=0;right=0;bottom=0;" parent="XdL7hsEJWzmp8j8xBz7F-186" vertex="1">
          <mxGeometry y="90" width="180" height="30" as="geometry" />
        </mxCell>
        <mxCell id="XdL7hsEJWzmp8j8xBz7F-194" value="" style="shape=partialRectangle;connectable=0;fillColor=none;top=0;left=0;bottom=0;right=0;fontStyle=1;overflow=hidden;whiteSpace=wrap;html=1;" parent="XdL7hsEJWzmp8j8xBz7F-193" vertex="1">
          <mxGeometry width="56" height="30" as="geometry">
            <mxRectangle width="56" height="30" as="alternateBounds" />
          </mxGeometry>
        </mxCell>
        <mxCell id="XdL7hsEJWzmp8j8xBz7F-195" value="&lt;span style=&quot;&quot;&gt;number INT(11)&lt;/span&gt;" style="shape=partialRectangle;connectable=0;fillColor=none;top=0;left=0;bottom=0;right=0;align=left;spacingLeft=6;fontStyle=0;overflow=hidden;whiteSpace=wrap;html=1;" parent="XdL7hsEJWzmp8j8xBz7F-193" vertex="1">
          <mxGeometry x="56" width="124" height="30" as="geometry">
            <mxRectangle width="124" height="30" as="alternateBounds" />
          </mxGeometry>
        </mxCell>
        <mxCell id="3xG4VRkXuifI6DESEmEP-6" value="SubtitleForSeries" style="shape=table;startSize=30;container=1;collapsible=1;childLayout=tableLayout;fixedRows=1;rowLines=0;fontStyle=1;align=center;resizeLast=1;html=1;whiteSpace=wrap;" parent="1" vertex="1">
          <mxGeometry x="-140" y="680" width="200" height="90" as="geometry" />
        </mxCell>
        <mxCell id="3xG4VRkXuifI6DESEmEP-7" value="" style="shape=tableRow;horizontal=0;startSize=0;swimlaneHead=0;swimlaneBody=0;fillColor=none;collapsible=0;dropTarget=0;points=[[0,0.5],[1,0.5]];portConstraint=eastwest;top=0;left=0;right=0;bottom=0;html=1;" parent="3xG4VRkXuifI6DESEmEP-6" vertex="1">
          <mxGeometry y="30" width="200" height="30" as="geometry" />
        </mxCell>
        <mxCell id="3xG4VRkXuifI6DESEmEP-8" value="PK,FK1" style="shape=partialRectangle;connectable=0;fillColor=none;top=0;left=0;bottom=0;right=0;fontStyle=1;overflow=hidden;html=1;whiteSpace=wrap;" parent="3xG4VRkXuifI6DESEmEP-7" vertex="1">
          <mxGeometry width="60" height="30" as="geometry">
            <mxRectangle width="60" height="30" as="alternateBounds" />
          </mxGeometry>
        </mxCell>
        <mxCell id="3xG4VRkXuifI6DESEmEP-9" value="language_id INT(11)" style="shape=partialRectangle;connectable=0;fillColor=none;top=0;left=0;bottom=0;right=0;align=left;spacingLeft=6;fontStyle=5;overflow=hidden;html=1;whiteSpace=wrap;" parent="3xG4VRkXuifI6DESEmEP-7" vertex="1">
          <mxGeometry x="60" width="140" height="30" as="geometry">
            <mxRectangle width="140" height="30" as="alternateBounds" />
          </mxGeometry>
        </mxCell>
        <mxCell id="3xG4VRkXuifI6DESEmEP-10" value="" style="shape=tableRow;horizontal=0;startSize=0;swimlaneHead=0;swimlaneBody=0;fillColor=none;collapsible=0;dropTarget=0;points=[[0,0.5],[1,0.5]];portConstraint=eastwest;top=0;left=0;right=0;bottom=1;html=1;" parent="3xG4VRkXuifI6DESEmEP-6" vertex="1">
          <mxGeometry y="60" width="200" height="30" as="geometry" />
        </mxCell>
        <mxCell id="3xG4VRkXuifI6DESEmEP-11" value="PK,FK2" style="shape=partialRectangle;connectable=0;fillColor=none;top=0;left=0;bottom=0;right=0;fontStyle=1;overflow=hidden;html=1;whiteSpace=wrap;" parent="3xG4VRkXuifI6DESEmEP-10" vertex="1">
          <mxGeometry width="60" height="30" as="geometry">
            <mxRectangle width="60" height="30" as="alternateBounds" />
          </mxGeometry>
        </mxCell>
        <mxCell id="3xG4VRkXuifI6DESEmEP-12" value="series_id INT (11)" style="shape=partialRectangle;connectable=0;fillColor=none;top=0;left=0;bottom=0;right=0;align=left;spacingLeft=6;fontStyle=5;overflow=hidden;html=1;whiteSpace=wrap;" parent="3xG4VRkXuifI6DESEmEP-10" vertex="1">
          <mxGeometry x="60" width="140" height="30" as="geometry">
            <mxRectangle width="140" height="30" as="alternateBounds" />
          </mxGeometry>
        </mxCell>
        <mxCell id="3xG4VRkXuifI6DESEmEP-19" value="SubtitleForMovie" style="shape=table;startSize=30;container=1;collapsible=1;childLayout=tableLayout;fixedRows=1;rowLines=0;fontStyle=1;align=center;resizeLast=1;html=1;whiteSpace=wrap;" parent="1" vertex="1">
          <mxGeometry x="580" y="650" width="200" height="90" as="geometry" />
        </mxCell>
        <mxCell id="3xG4VRkXuifI6DESEmEP-20" value="" style="shape=tableRow;horizontal=0;startSize=0;swimlaneHead=0;swimlaneBody=0;fillColor=none;collapsible=0;dropTarget=0;points=[[0,0.5],[1,0.5]];portConstraint=eastwest;top=0;left=0;right=0;bottom=0;html=1;" parent="3xG4VRkXuifI6DESEmEP-19" vertex="1">
          <mxGeometry y="30" width="200" height="30" as="geometry" />
        </mxCell>
        <mxCell id="3xG4VRkXuifI6DESEmEP-21" value="PK,FK1" style="shape=partialRectangle;connectable=0;fillColor=none;top=0;left=0;bottom=0;right=0;fontStyle=1;overflow=hidden;html=1;whiteSpace=wrap;" parent="3xG4VRkXuifI6DESEmEP-20" vertex="1">
          <mxGeometry width="60" height="30" as="geometry">
            <mxRectangle width="60" height="30" as="alternateBounds" />
          </mxGeometry>
        </mxCell>
        <mxCell id="3xG4VRkXuifI6DESEmEP-22" value="language_id INT(11)" style="shape=partialRectangle;connectable=0;fillColor=none;top=0;left=0;bottom=0;right=0;align=left;spacingLeft=6;fontStyle=5;overflow=hidden;html=1;whiteSpace=wrap;" parent="3xG4VRkXuifI6DESEmEP-20" vertex="1">
          <mxGeometry x="60" width="140" height="30" as="geometry">
            <mxRectangle width="140" height="30" as="alternateBounds" />
          </mxGeometry>
        </mxCell>
        <mxCell id="3xG4VRkXuifI6DESEmEP-23" value="" style="shape=tableRow;horizontal=0;startSize=0;swimlaneHead=0;swimlaneBody=0;fillColor=none;collapsible=0;dropTarget=0;points=[[0,0.5],[1,0.5]];portConstraint=eastwest;top=0;left=0;right=0;bottom=1;html=1;" parent="3xG4VRkXuifI6DESEmEP-19" vertex="1">
          <mxGeometry y="60" width="200" height="30" as="geometry" />
        </mxCell>
        <mxCell id="3xG4VRkXuifI6DESEmEP-24" value="PK,FK2" style="shape=partialRectangle;connectable=0;fillColor=none;top=0;left=0;bottom=0;right=0;fontStyle=1;overflow=hidden;html=1;whiteSpace=wrap;" parent="3xG4VRkXuifI6DESEmEP-23" vertex="1">
          <mxGeometry width="60" height="30" as="geometry">
            <mxRectangle width="60" height="30" as="alternateBounds" />
          </mxGeometry>
        </mxCell>
        <mxCell id="3xG4VRkXuifI6DESEmEP-25" value="movie_id INT(11)" style="shape=partialRectangle;connectable=0;fillColor=none;top=0;left=0;bottom=0;right=0;align=left;spacingLeft=6;fontStyle=5;overflow=hidden;html=1;whiteSpace=wrap;" parent="3xG4VRkXuifI6DESEmEP-23" vertex="1">
          <mxGeometry x="60" width="140" height="30" as="geometry">
            <mxRectangle width="140" height="30" as="alternateBounds" />
          </mxGeometry>
        </mxCell>
        <mxCell id="3xG4VRkXuifI6DESEmEP-26" value="" style="edgeStyle=entityRelationEdgeStyle;fontSize=12;html=1;endArrow=ERoneToMany;startArrow=ERmandOne;rounded=0;" parent="1" source="fjR6-STgmZudcx6aowrz-15" target="3xG4VRkXuifI6DESEmEP-6" edge="1">
          <mxGeometry width="100" height="100" relative="1" as="geometry">
            <mxPoint x="-150" y="735" as="sourcePoint" />
            <mxPoint y="860" as="targetPoint" />
          </mxGeometry>
        </mxCell>
        <mxCell id="3xG4VRkXuifI6DESEmEP-28" value="" style="edgeStyle=entityRelationEdgeStyle;fontSize=12;html=1;endArrow=ERoneToMany;startArrow=ERmandOne;rounded=0;" parent="1" source="XdL7hsEJWzmp8j8xBz7F-72" target="3xG4VRkXuifI6DESEmEP-10" edge="1">
          <mxGeometry width="100" height="100" relative="1" as="geometry">
            <mxPoint x="-380" y="850" as="sourcePoint" />
            <mxPoint x="-375" y="735" as="targetPoint" />
            <Array as="points">
              <mxPoint x="-100" y="820" />
              <mxPoint x="-130" y="810" />
            </Array>
          </mxGeometry>
        </mxCell>
        <mxCell id="fjR6-STgmZudcx6aowrz-14" value="Language" style="shape=table;startSize=30;container=1;collapsible=1;childLayout=tableLayout;fixedRows=1;rowLines=0;fontStyle=1;align=center;resizeLast=1;html=1;" parent="1" vertex="1">
          <mxGeometry x="200" y="680" width="180" height="90" as="geometry" />
        </mxCell>
        <mxCell id="fjR6-STgmZudcx6aowrz-15" value="" style="shape=tableRow;horizontal=0;startSize=0;swimlaneHead=0;swimlaneBody=0;fillColor=none;collapsible=0;dropTarget=0;points=[[0,0.5],[1,0.5]];portConstraint=eastwest;top=0;left=0;right=0;bottom=1;" parent="fjR6-STgmZudcx6aowrz-14" vertex="1">
          <mxGeometry y="30" width="180" height="30" as="geometry" />
        </mxCell>
        <mxCell id="fjR6-STgmZudcx6aowrz-16" value="PK" style="shape=partialRectangle;connectable=0;fillColor=none;top=0;left=0;bottom=0;right=0;fontStyle=1;overflow=hidden;whiteSpace=wrap;html=1;" parent="fjR6-STgmZudcx6aowrz-15" vertex="1">
          <mxGeometry width="30" height="30" as="geometry">
            <mxRectangle width="30" height="30" as="alternateBounds" />
          </mxGeometry>
        </mxCell>
        <mxCell id="fjR6-STgmZudcx6aowrz-17" value="language_id INT(11)" style="shape=partialRectangle;connectable=0;fillColor=none;top=0;left=0;bottom=0;right=0;align=left;spacingLeft=6;fontStyle=5;overflow=hidden;whiteSpace=wrap;html=1;" parent="fjR6-STgmZudcx6aowrz-15" vertex="1">
          <mxGeometry x="30" width="150" height="30" as="geometry">
            <mxRectangle width="150" height="30" as="alternateBounds" />
          </mxGeometry>
        </mxCell>
        <mxCell id="fjR6-STgmZudcx6aowrz-24" value="" style="shape=tableRow;horizontal=0;startSize=0;swimlaneHead=0;swimlaneBody=0;fillColor=none;collapsible=0;dropTarget=0;points=[[0,0.5],[1,0.5]];portConstraint=eastwest;top=0;left=0;right=0;bottom=0;" parent="fjR6-STgmZudcx6aowrz-14" vertex="1">
          <mxGeometry y="60" width="180" height="30" as="geometry" />
        </mxCell>
        <mxCell id="fjR6-STgmZudcx6aowrz-25" value="" style="shape=partialRectangle;connectable=0;fillColor=none;top=0;left=0;bottom=0;right=0;editable=1;overflow=hidden;whiteSpace=wrap;html=1;" parent="fjR6-STgmZudcx6aowrz-24" vertex="1">
          <mxGeometry width="30" height="30" as="geometry">
            <mxRectangle width="30" height="30" as="alternateBounds" />
          </mxGeometry>
        </mxCell>
        <mxCell id="fjR6-STgmZudcx6aowrz-26" value="name VARCHAR(255)" style="shape=partialRectangle;connectable=0;fillColor=none;top=0;left=0;bottom=0;right=0;align=left;spacingLeft=6;overflow=hidden;whiteSpace=wrap;html=1;" parent="fjR6-STgmZudcx6aowrz-24" vertex="1">
          <mxGeometry x="30" width="150" height="30" as="geometry">
            <mxRectangle width="150" height="30" as="alternateBounds" />
          </mxGeometry>
        </mxCell>
        <mxCell id="fjR6-STgmZudcx6aowrz-28" value="" style="edgeStyle=entityRelationEdgeStyle;fontSize=12;html=1;endArrow=ERoneToMany;startArrow=ERmandOne;rounded=0;" parent="1" source="fjR6-STgmZudcx6aowrz-24" target="EU6la3L2fqB7HWYpTvSu-4" edge="1">
          <mxGeometry width="100" height="100" relative="1" as="geometry">
            <mxPoint x="209.99999999999994" y="740" as="sourcePoint" />
            <mxPoint x="249.94" y="680" as="targetPoint" />
          </mxGeometry>
        </mxCell>
        <mxCell id="eUmrSAGHuuEkEOH1z1c--14" value="GenreForMovie" style="shape=table;startSize=30;container=1;collapsible=1;childLayout=tableLayout;fixedRows=1;rowLines=0;fontStyle=1;align=center;resizeLast=1;html=1;whiteSpace=wrap;" parent="1" vertex="1">
          <mxGeometry x="414" y="1020" width="180" height="90" as="geometry" />
        </mxCell>
        <mxCell id="eUmrSAGHuuEkEOH1z1c--15" value="" style="shape=tableRow;horizontal=0;startSize=0;swimlaneHead=0;swimlaneBody=0;fillColor=none;collapsible=0;dropTarget=0;points=[[0,0.5],[1,0.5]];portConstraint=eastwest;top=0;left=0;right=0;bottom=0;html=1;" parent="eUmrSAGHuuEkEOH1z1c--14" vertex="1">
          <mxGeometry y="30" width="180" height="30" as="geometry" />
        </mxCell>
        <mxCell id="eUmrSAGHuuEkEOH1z1c--16" value="PK,FK1" style="shape=partialRectangle;connectable=0;fillColor=none;top=0;left=0;bottom=0;right=0;fontStyle=1;overflow=hidden;html=1;whiteSpace=wrap;" parent="eUmrSAGHuuEkEOH1z1c--15" vertex="1">
          <mxGeometry width="60" height="30" as="geometry">
            <mxRectangle width="60" height="30" as="alternateBounds" />
          </mxGeometry>
        </mxCell>
        <mxCell id="eUmrSAGHuuEkEOH1z1c--17" value="genre_id INT(11)" style="shape=partialRectangle;connectable=0;fillColor=none;top=0;left=0;bottom=0;right=0;align=left;spacingLeft=6;fontStyle=5;overflow=hidden;html=1;whiteSpace=wrap;" parent="eUmrSAGHuuEkEOH1z1c--15" vertex="1">
          <mxGeometry x="60" width="120" height="30" as="geometry">
            <mxRectangle width="120" height="30" as="alternateBounds" />
          </mxGeometry>
        </mxCell>
        <mxCell id="eUmrSAGHuuEkEOH1z1c--18" value="" style="shape=tableRow;horizontal=0;startSize=0;swimlaneHead=0;swimlaneBody=0;fillColor=none;collapsible=0;dropTarget=0;points=[[0,0.5],[1,0.5]];portConstraint=eastwest;top=0;left=0;right=0;bottom=1;html=1;" parent="eUmrSAGHuuEkEOH1z1c--14" vertex="1">
          <mxGeometry y="60" width="180" height="30" as="geometry" />
        </mxCell>
        <mxCell id="eUmrSAGHuuEkEOH1z1c--19" value="PK,FK2" style="shape=partialRectangle;connectable=0;fillColor=none;top=0;left=0;bottom=0;right=0;fontStyle=1;overflow=hidden;html=1;whiteSpace=wrap;" parent="eUmrSAGHuuEkEOH1z1c--18" vertex="1">
          <mxGeometry width="60" height="30" as="geometry">
            <mxRectangle width="60" height="30" as="alternateBounds" />
          </mxGeometry>
        </mxCell>
        <mxCell id="eUmrSAGHuuEkEOH1z1c--20" value="movie_id INT(11)" style="shape=partialRectangle;connectable=0;fillColor=none;top=0;left=0;bottom=0;right=0;align=left;spacingLeft=6;fontStyle=5;overflow=hidden;html=1;whiteSpace=wrap;" parent="eUmrSAGHuuEkEOH1z1c--18" vertex="1">
          <mxGeometry x="60" width="120" height="30" as="geometry">
            <mxRectangle width="120" height="30" as="alternateBounds" />
          </mxGeometry>
        </mxCell>
        <mxCell id="eUmrSAGHuuEkEOH1z1c--27" value="" style="edgeStyle=entityRelationEdgeStyle;fontSize=12;html=1;endArrow=ERoneToMany;startArrow=ERmandOne;rounded=0;" parent="1" source="GZtOEcgJhMEAu9N8K_ei-66" target="eUmrSAGHuuEkEOH1z1c--14" edge="1">
          <mxGeometry width="100" height="100" relative="1" as="geometry">
            <mxPoint x="580" y="1040" as="sourcePoint" />
            <mxPoint x="620" y="1100" as="targetPoint" />
          </mxGeometry>
        </mxCell>
        <mxCell id="1vVcCZTa0Yc0mYnQ3SdC-1" value="GenreForSeries" style="shape=table;startSize=30;container=1;collapsible=1;childLayout=tableLayout;fixedRows=1;rowLines=0;fontStyle=1;align=center;resizeLast=1;html=1;whiteSpace=wrap;" vertex="1" parent="1">
          <mxGeometry y="1010" width="180" height="90" as="geometry" />
        </mxCell>
        <mxCell id="1vVcCZTa0Yc0mYnQ3SdC-2" value="" style="shape=tableRow;horizontal=0;startSize=0;swimlaneHead=0;swimlaneBody=0;fillColor=none;collapsible=0;dropTarget=0;points=[[0,0.5],[1,0.5]];portConstraint=eastwest;top=0;left=0;right=0;bottom=0;html=1;" vertex="1" parent="1vVcCZTa0Yc0mYnQ3SdC-1">
          <mxGeometry y="30" width="180" height="30" as="geometry" />
        </mxCell>
        <mxCell id="1vVcCZTa0Yc0mYnQ3SdC-3" value="PK,FK1" style="shape=partialRectangle;connectable=0;fillColor=none;top=0;left=0;bottom=0;right=0;fontStyle=1;overflow=hidden;html=1;whiteSpace=wrap;" vertex="1" parent="1vVcCZTa0Yc0mYnQ3SdC-2">
          <mxGeometry width="60" height="30" as="geometry">
            <mxRectangle width="60" height="30" as="alternateBounds" />
          </mxGeometry>
        </mxCell>
        <mxCell id="1vVcCZTa0Yc0mYnQ3SdC-4" value="genre_id INT(11)" style="shape=partialRectangle;connectable=0;fillColor=none;top=0;left=0;bottom=0;right=0;align=left;spacingLeft=6;fontStyle=5;overflow=hidden;html=1;whiteSpace=wrap;" vertex="1" parent="1vVcCZTa0Yc0mYnQ3SdC-2">
          <mxGeometry x="60" width="120" height="30" as="geometry">
            <mxRectangle width="120" height="30" as="alternateBounds" />
          </mxGeometry>
        </mxCell>
        <mxCell id="1vVcCZTa0Yc0mYnQ3SdC-5" value="" style="shape=tableRow;horizontal=0;startSize=0;swimlaneHead=0;swimlaneBody=0;fillColor=none;collapsible=0;dropTarget=0;points=[[0,0.5],[1,0.5]];portConstraint=eastwest;top=0;left=0;right=0;bottom=1;html=1;" vertex="1" parent="1vVcCZTa0Yc0mYnQ3SdC-1">
          <mxGeometry y="60" width="180" height="30" as="geometry" />
        </mxCell>
        <mxCell id="1vVcCZTa0Yc0mYnQ3SdC-6" value="PK,FK2" style="shape=partialRectangle;connectable=0;fillColor=none;top=0;left=0;bottom=0;right=0;fontStyle=1;overflow=hidden;html=1;whiteSpace=wrap;" vertex="1" parent="1vVcCZTa0Yc0mYnQ3SdC-5">
          <mxGeometry width="60" height="30" as="geometry">
            <mxRectangle width="60" height="30" as="alternateBounds" />
          </mxGeometry>
        </mxCell>
        <mxCell id="1vVcCZTa0Yc0mYnQ3SdC-7" value="series_id INT(11)" style="shape=partialRectangle;connectable=0;fillColor=none;top=0;left=0;bottom=0;right=0;align=left;spacingLeft=6;fontStyle=5;overflow=hidden;html=1;whiteSpace=wrap;" vertex="1" parent="1vVcCZTa0Yc0mYnQ3SdC-5">
          <mxGeometry x="60" width="120" height="30" as="geometry">
            <mxRectangle width="120" height="30" as="alternateBounds" />
          </mxGeometry>
        </mxCell>
        <mxCell id="1vVcCZTa0Yc0mYnQ3SdC-9" value="" style="edgeStyle=elbowEdgeStyle;fontSize=12;html=1;endArrow=ERoneToMany;startArrow=ERmandOne;rounded=0;elbow=vertical;" edge="1" parent="1" source="XdL7hsEJWzmp8j8xBz7F-87" target="1vVcCZTa0Yc0mYnQ3SdC-1">
          <mxGeometry width="100" height="100" relative="1" as="geometry">
            <mxPoint x="-230" y="1105" as="sourcePoint" />
            <mxPoint x="-80" y="1040" as="targetPoint" />
            <Array as="points">
              <mxPoint x="-70" y="1070" />
            </Array>
          </mxGeometry>
        </mxCell>
        <mxCell id="1vVcCZTa0Yc0mYnQ3SdC-12" value="" style="edgeStyle=elbowEdgeStyle;fontSize=12;html=1;endArrow=ERoneToMany;startArrow=ERmandOne;rounded=0;elbow=vertical;" edge="1" parent="1" source="GZtOEcgJhMEAu9N8K_ei-66" target="3xG4VRkXuifI6DESEmEP-19">
          <mxGeometry width="100" height="100" relative="1" as="geometry">
            <mxPoint x="695" y="780" as="sourcePoint" />
            <mxPoint x="665" y="880" as="targetPoint" />
            <Array as="points">
              <mxPoint x="695" y="880" />
            </Array>
          </mxGeometry>
        </mxCell>
      </root>
    </mxGraphModel>
  </diagram>
</mxfile>
